<svg xmlns="http://www.w3.org/2000/svg" xmlns:xlink="http://www.w3.org/1999/xlink" version="1.1" id="Ebene_1" x="0px" y="0px" width="70px" height="70px" viewBox="5.0 -10.0 100.0 135.0" enable-background="new 0 0 100 100" xml:space="preserve">
<g id="Lunch">
	<g>
		<path d="M60.139,48.233c-1.157,0-2.093,0.936-2.093,2.093s0.936,2.093,2.093,2.093s2.094-0.936,2.094-2.093    S61.296,48.233,60.139,48.233z M51.766,52.419c-1.157,0-2.093,0.937-2.093,2.094s0.937,2.093,2.093,2.093    c1.157,0,2.094-0.936,2.094-2.093S52.923,52.419,51.766,52.419z M97.141,65.49c-0.647-0.595-1.601-1.724-2.512-2.868    c0.649-0.355,1.095-1.037,1.095-1.83c0-10.564-12.872-18.839-29.305-18.839c-16.434,0-29.306,8.275-29.306,18.839    c0,0.439,0.136,0.846,0.367,1.183l-1.683,2.353c-0.184,0.222-0.384,0.477-0.586,0.752l1.695-28.359h0.66    c1.157,0,2.093-0.937,2.093-2.093v-7.118c0-1.157-0.937-2.093-2.093-2.093H22.326l3.058-15.288l-4.104-0.822l-3.223,16.11H1.979    c-1.157,0-2.093,0.937-2.093,2.093v7.118c0,1.09,0.835,1.975,1.899,2.074L4.86,88.129c0.065,1.106,0.981,1.969,2.089,1.969h24.794    c1.108,0,2.023-0.862,2.089-1.969l0.96-16.068c0.507,0.32,1.196,0.561,2.157,0.562c0.017,0,0.098-0.002,0.163-0.003v3.828    c0,0.674,0.227,1.281,0.592,1.729c-0.365,0.376-0.592,0.889-0.592,1.455c0,5.771,4.696,10.466,10.466,10.466h37.679    c5.771,0,10.466-4.695,10.466-10.466c0-0.566-0.227-1.079-0.592-1.455c0.365-0.448,0.592-1.056,0.592-1.729v-3.829    c0.794,0,3.21,0,3.973-1.956C100.505,68.581,98.562,66.794,97.141,65.49z M29.771,85.911H8.922L5.98,36.72h26.732L29.771,85.911z     M4.073,32.534v-2.932h31.399v2.932H4.073z M66.419,46.14c12.399,0,23.048,5.566,24.851,12.56H41.567    C43.37,51.706,54.019,46.14,66.419,46.14z M47.579,85.911c-2.729,0-5.057-1.75-5.922-4.187h29.807l3.097,4.187H47.579z     M73.612,77.538h10.004l-4.904,6.946L73.612,77.538z M85.258,85.911h-2.394l3.097-4.187h5.219    C90.315,84.161,87.986,85.911,85.258,85.911z M91.537,73.959H41.299v-2.921c0.151-0.112,0.298-0.224,0.439-0.336h5.011    c1.087,0.935,2.57,1.916,5.016,1.916s3.907-0.984,4.975-1.916h4.711c1.067,0.931,2.529,1.916,4.968,1.916    c2.425,0,3.864-1.018,4.854-1.916h4.921c0.987,0.902,2.428,1.916,4.878,1.916c2.448,0,3.928-1.01,4.952-1.916h4.936    c0.18,0.154,0.374,0.31,0.578,0.464V73.959z M88.397,64.938c-2.373,0-3.695,1.261-4.663,2.183    c-0.856,0.817-1.373,1.311-2.663,1.311c-1.234,0-1.685-0.441-2.5-1.243c-0.967-0.95-2.292-2.25-4.826-2.25    c-2.537,0-3.874,1.302-4.852,2.254c-0.819,0.8-1.271,1.239-2.475,1.239c-1.284,0-1.824-0.505-2.722-1.341    c-0.975-0.908-2.308-2.152-4.605-2.152c-2.297,0-3.626,1.242-4.599,2.152c-0.894,0.836-1.436,1.341-2.728,1.341    c-1.322,0-1.919-0.55-2.823-1.38c-0.969-0.894-2.294-2.113-4.503-2.113c-2.236,0-3.712,1.197-4.9,2.158    c-0.493,0.4-0.894,0.72-1.271,0.944c0.245-0.382,0.538-0.789,0.84-1.159l2.866-3.996h47.573c0.629,0.844,1.623,2.148,2.631,3.36    C91.249,65.556,90.052,64.938,88.397,64.938z M81.071,52.419c-1.157,0-2.094,0.937-2.094,2.094s0.937,2.093,2.094,2.093    s2.093-0.936,2.093-2.093S82.229,52.419,81.071,52.419z M74.791,50.326c-1.156,0-2.093,0.937-2.093,2.093    c0,1.157,0.937,2.094,2.093,2.094c1.157,0,2.094-0.937,2.094-2.094C76.885,51.263,75.948,50.326,74.791,50.326z M66.419,52.419    c-1.157,0-2.094,0.937-2.094,2.094s0.937,2.093,2.094,2.093c1.156,0,2.093-0.936,2.093-2.093S67.575,52.419,66.419,52.419z"/>
	</g>
</g>
</svg>