<svg xmlns="http://www.w3.org/2000/svg" xmlns:xlink="http://www.w3.org/1999/xlink" version="1.1" id="Your_Icon" x="0px" y="0px" width="60px" height="60px" viewBox="5.0 -10.0 100.0 135.0" enable-background="new 0 0 100 100" xml:space="preserve">
<g>
	<path fill="tomato
" d="M13.81,45h71.81c0.859,0,1.587-0.703,1.718-1.554c0.063-0.407,1.447-10.133-5.634-18.377   c-6.286-7.32-17.048-11.05-31.984-11.05c-14.94,0-25.703,3.699-31.988,11.024c-7.081,8.239-5.697,18-5.635,18.407   C12.228,44.302,12.955,45,13.81,45z M20.403,27.066c5.603-6.484,15.465-9.685,29.315-9.685c13.847,0,23.709,3.154,29.312,9.639   C83.575,32.284,84.045,39,84,41H15.434C15.384,39,15.854,32.33,20.403,27.066z"/>
	<path fill="tomato
" d="M85.619,67H13.81c-0.796,0-1.482,0.384-1.682,1.152c-0.046,0.176-1.05,4.293,2.374,8.693   c5.133,6.592,16.979,9.895,35.217,9.895c18.229,0,30.076-3.362,35.213-9.955c3.423-4.4,2.415-8.447,2.369-8.623   C87.106,67.394,86.415,67,85.619,67z M82.109,74.653c-3.093,3.88-11.228,8.536-32.391,8.536c-21.167,0-29.303-4.681-32.399-8.556   C15.895,72.848,15.506,71,15.434,70H84C83.928,71,83.539,72.872,82.109,74.653z"/>
	<path fill="#162525" d="M91,53.358C91,50.951,88.713,49,85.891,49H14.109C11.287,49,9,50.951,9,53.358v5.283C9,61.049,11.287,63,14.109,63h71.781   C88.713,63,91,61.049,91,58.642V53.358z"/>
	<path fill="#D2691E" d="M27.484,35.254c0.841,0,1.523-0.679,1.523-1.52c0-0.846-0.683-1.52-1.523-1.52s-1.52,0.674-1.52,1.52   C25.965,34.575,26.644,35.254,27.484,35.254z"/>
	<path fill="#D2691E" d="M41.331,35.254c0.845,0,1.528-0.679,1.528-1.52c0-0.846-0.684-1.52-1.528-1.52c-0.842,0-1.524,0.674-1.524,1.52   C39.807,34.575,40.489,35.254,41.331,35.254z"/>
	<path fill="#D2691E" d="M55.177,35.254c0.841,0,1.524-0.679,1.524-1.52c0-0.846-0.684-1.52-1.524-1.52s-1.52,0.674-1.52,1.52   C53.657,34.575,54.336,35.254,55.177,35.254z"/>
	<path fill="#D2691E" d="M69.023,35.254c0.846,0,1.528-0.679,1.528-1.52c0-0.846-0.683-1.52-1.528-1.52c-0.842,0-1.52,0.674-1.52,1.52   C67.504,34.575,68.182,35.254,69.023,35.254z"/>
	<path fill="#D2691E" d="M34.674,28.489c0.842,0,1.524-0.688,1.524-1.528c0-0.842-0.683-1.524-1.524-1.524c-0.836,0-1.519,0.683-1.519,1.524   C33.155,27.802,33.838,28.489,34.674,28.489z"/>
	<path fill="#D2691E" d="M48.525,28.489c0.836,0,1.523-0.688,1.523-1.528c0-0.842-0.688-1.524-1.523-1.524c-0.842,0-1.524,0.683-1.524,1.524   C47.001,27.802,47.684,28.489,48.525,28.489z"/>
	<path fill="#D2691E" d="M62.376,28.489c0.832,0,1.52-0.688,1.52-1.528c0-0.842-0.688-1.524-1.52-1.524c-0.841,0-1.528,0.683-1.528,1.524   C60.848,27.802,61.535,28.489,62.376,28.489z"/>
</g>
<text x="0.0" y="117.5" font-size="5.0" font-weight="bold" font-family="Helvetica Neue, Helvetica, Arial-Unicode, Arial, Sans-serif" fill="#000000"></text><text x="0.0" y="122.5" font-size="5.0" font-weight="bold" font-family="Helvetica Neue, Helvetica, Arial-Unicode, Arial, Sans-serif" fill="#000000">f</text></svg>