<svg xmlns="http://www.w3.org/2000/svg" xmlns:xlink="http://www.w3.org/1999/xlink" version="1.1" id="Layer_1" x="0px" y="0px" width="60px" height="60px" viewBox="5.0 -10.0 100.0 135.0" enable-background="new 0 0 100 100" xml:space="preserve">
<g>
	<g>
		<polygon points="77.487,15.731 74.929,15.731 74.929,11.18 85.934,4.616 87.244,6.813 77.487,12.633   "/>
	</g>
	<path d="M93.631,20.432h-1.545l-1.365-3.592H71.066h-19.65l-1.368,3.592h-1.542l-1.369,4.099h23.93H95L93.631,20.432z    M88.644,21.644H53.494v-2.731h35.149V21.644z"/>
	<g>
		<g>
			<path fill="#000000" d="M35.407,54.029c-8.368,0-26.76,1.824-26.76,15.204h53.52C62.167,55.854,43.775,54.029,35.407,54.029z"/>
			<path fill="#000000" d="M35.407,95.384c8.368,0,26.76,0,26.76-9.73H8.647C8.647,95.384,27.039,95.384,35.407,95.384z"/>
			<path fill="#000000" d="M62.167,75.923h-1.826c-1.607,0-3.741,1.317-5.81,2.59c-2.404,1.483-4.675,2.884-6.958,2.884     c-1.947,0-4.207-1.038-6.826-2.238c-3.304-1.517-7.052-3.235-10.813-3.235H8.647C6.636,75.923,5,77.557,5,79.57     c0,2.018,1.636,3.65,3.647,3.65h53.52c2.017,0,3.647-1.633,3.647-3.65C65.814,77.557,64.184,75.923,62.167,75.923z"/>
			<path fill="#000000" d="M6.214,74.097c0,0,12.166,0,23.72,0c2.765,0,5.473,0.822,7.971,1.826l0,0     c0.494,0.196,0.98,0.404,1.454,0.61c0.008,0.003,0.016,0.007,0.024,0.012c1.765,0.771,3.396,1.569,4.834,2.154     c0.027,0.012,0.052,0.022,0.081,0.032c0.299,0.12,0.591,0.232,0.874,0.332c0.012,0.004,0.024,0.008,0.037,0.011     c0.258,0.092,0.509,0.169,0.753,0.238c0.04,0.01,0.081,0.023,0.121,0.034c0.238,0.064,0.474,0.112,0.695,0.151     c0.045,0.006,0.09,0.013,0.134,0.021c0.231,0.031,0.45,0.052,0.661,0.052c0.202,0,0.416-0.021,0.627-0.054     c0.045-0.006,0.085-0.013,0.125-0.021c0.211-0.037,0.422-0.087,0.636-0.149c0.037-0.012,0.077-0.024,0.113-0.037     c0.211-0.066,0.425-0.144,0.644-0.229c0.017-0.009,0.032-0.013,0.045-0.02c0.234-0.097,0.474-0.204,0.713-0.319     c0.036-0.019,0.073-0.036,0.109-0.055c1.47-0.726,3.032-1.779,4.595-2.695c1.766-1.035,3.534-1.895,5.161-1.895     c3.652,0,4.26,0,4.26,0c0.672,0,1.214-0.543,1.214-1.215c0-0.671-0.542-1.217-1.214-1.217H6.214C5.546,71.665,5,72.211,5,72.882     C5,73.554,5.546,74.097,6.214,74.097z"/>
		</g>
		<path d="M71.066,27.27H48.254l2.619,26.311c7.117,2.161,13.738,6.543,13.738,15.381v0.194h0.195c1.903,0,3.452,1.55,3.452,3.454    c0,1.163-0.579,2.192-1.463,2.818c0.908,1.036,1.463,2.388,1.463,3.871c0,1.245-0.391,2.398-1.053,3.35h3.86h17.303l5.512-55.379    H71.066z"/>
	</g>
</g>
</svg>