<?xml version="1.0" encoding="utf-8"?>
<!-- Generator: Adobe Illustrator 16.0.0, SVG Export Plug-In . SVG Version: 6.00 Build 0)  -->
<!DOCTYPE svg PUBLIC "-//W3C//DTD SVG 1.1//EN" "http://www.w3.org/Graphics/SVG/1.1/DTD/svg11.dtd">
<svg version="1.1" id="Layer_1" xmlns="http://www.w3.org/2000/svg" xmlns:xlink="http://www.w3.org/1999/xlink" x="0px" y="0px"
	 width="60px" height="60px" viewBox="1.036 0 96.425 100" enable-background="new 1.036 0 96.425 100" xml:space="preserve">
<g>
	<path fill="tomato
" d="M61.132,64.483l-2.073,12.85l-0.591,3.784h-1.124v0.002h-6.3v-0.002h-3.211l-6.027,18.881h3.211l4.889-15.316h8.579
		l4.891,15.316h3.012l-4.887-15.315h16.266L72.879,100h3.208l4.892-15.317h8.58L94.444,100h3.017l-5.793-18.147l0.707-4.52
		l2.067-12.849H92.2H63.376L61.132,64.483L61.132,64.483z M88.768,81.117h-0.35v0.002h-6.302l0.002-0.002h-3.214L78.9,81.119H61.277
		l0.591-3.786h27.49L88.768,81.117z"/>
	<path fill="#162525
" d="M41.006,73.291c3.328-1.187,6.307-3.304,8.718-6.1c1.905,0.895,4.026,1.409,6.271,1.409c0.736,0,1.456-0.076,2.163-0.187
		l0.693-4.3c0.18-1.118,1.145-1.939,2.277-1.939h2.246h4.748c1.652-2.39,2.666-5.248,2.666-8.371
		c-0.004-4.554-2.061-8.623-5.297-11.338c3.235-2.714,5.293-6.782,5.293-11.339c0-8.171-6.622-14.795-14.795-14.795
		c-0.301,0-0.592,0.026-0.891,0.045C52.163,6.832,44.396,0,35.241,0C23.565,0,14.103,11.095,14.103,24.787
		c0,0.036,0.004,0.072,0.004,0.107c-7.358,0.856-13.07,7.104-13.07,14.69c0,6.163,3.765,11.437,9.12,13.663
		c-0.909,1.921-1.433,4.058-1.433,6.324c0,8.169,6.624,14.791,14.796,14.791c1.829,0,3.571-0.343,5.189-0.95v21.55h12.284
		l0.014-0.041V73.291z"/>
	<g>
		<path fill="#162525

" d="M82.627,14.448L82.627,14.448c-0.999-0.199-1.648-1.169-1.451-2.169c0.253-1.279-4.203-3.745-9.002-4.982
			c-0.985-0.255-1.58-1.261-1.327-2.249c0.259-0.987,1.297-1.573,2.251-1.328c2.144,0.554,7.688,2.208,10.335,5.096
			c3.014-2.242,8.176-2.454,11.196-1.854c1,0.199,1.648,1.17,1.449,2.169c-0.196,1.001-1.169,1.649-2.166,1.453
			c-2.854-0.567-8.621-0.067-9.113,2.412C84.601,13.997,83.627,14.646,82.627,14.448z"/>
	</g>
</g>
</svg>
