<svg xmlns="http://www.w3.org/2000/svg" xmlns:xlink="http://www.w3.org/1999/xlink" version="1.1" x="0px" y="0px" width="60px" height="59px" viewBox="0 0 100 99" enable-background="new 0 0 100 99" xml:space="preserve">
<g id="Captions">
</g>
<g id="Your_Icon">
	<g>
		<g>
			<path fill="#162525" d="M57.881,18.533c0.19-0.217,0.397-0.416,0.636-0.58c-0.3-0.022-0.563-0.137-0.86-0.328     c-0.175-0.113-0.353-0.202-0.529-0.294"/>
			<path fill="#162525" d="M50.452,18.536c0.113-0.287,0.255-0.559,0.428-0.809c-0.493,0.118-0.963,0.094-1.5-0.103     C49.787,17.869,50.146,18.177,50.452,18.536z"/>
			<path fill="#162525" d="M64.001,19.963c-0.062-0.057-0.124-0.121-0.184-0.195c0.029,0.092,0.063,0.182,0.086,0.276     C63.937,20.019,63.966,19.987,64.001,19.963z"/>
			<path fill="#162525" d="M72.951,25.546c-0.011-0.042-0.02-0.085-0.031-0.126c-0.009,0.041-0.026,0.078-0.037,0.119     C72.906,25.541,72.929,25.542,72.951,25.546z"/>
			<path fill="#162525" d="M68.206,21.196c-0.124-0.089-0.246-0.181-0.363-0.276c0.059,0.109,0.111,0.223,0.154,0.341     C68.064,21.234,68.137,21.219,68.206,21.196z"/>
			<path fill="#162525" d="M43.137,19.765c-0.047-0.006-0.091-0.008-0.144-0.024c-0.187-0.059-0.361-0.092-0.538-0.131     c0.214,0.104,0.423,0.22,0.622,0.349C43.099,19.894,43.112,19.827,43.137,19.765z"/>
			<path fill="#162525" d="M75.482,30.915c-0.012-0.221,0.003-0.452,0.038-0.691c-0.084,0.182-0.18,0.355-0.294,0.518     C75.317,30.792,75.402,30.85,75.482,30.915z"/>
			<path fill="#162525" d="M31.85,26.494c-0.119,0.12-0.243,0.235-0.371,0.348c0.131-0.033,0.263-0.062,0.397-0.086     C31.862,26.67,31.854,26.583,31.85,26.494z"/>
			<path fill="#162525" d="M33.977,23.707c-0.014,0.007-0.027,0.015-0.042,0.021c0.014-0.003,0.025-0.007,0.039-0.01     C33.975,23.715,33.976,23.711,33.977,23.707z"/>
			<path fill="#162525" d="M76.561,33.715c-0.163-0.294-0.324-0.583-0.475-0.873c-0.031,0.107-0.07,0.211-0.119,0.309     C76.178,33.324,76.373,33.516,76.561,33.715z"/>
			<path d="M73.317,44.643c1.047,0.279,0.908,0.985,1.4,1.926c0.005-0.294,0.056-0.576,0.373-0.891     c1.886-1.866,2.9-3.842,3.053-5.977C77.49,42.397,76.16,44.433,73.317,44.643z"/>
			<path fill="#162525" d="M62.678,11.567c-8.996-1.982-17.959-1.857-26.358,2.286c-9.181,4.528-13.521,12.773-15.686,22.33     c-0.505,2.229-1.631,4.632,0.319,6.891c0.423,0.491-0.394,1.162-0.736,1.706c-1.828,2.905-3.726,5.77-5.461,8.729     c-1.445,2.464-1.136,3.368,1.493,4.209c2.101,0.672,3.138,1.562,2.096,3.902c-0.773,1.737,0.648,2.274,2.063,2.682     c-2.205,1.436-2.263,1.804-0.327,3.33c0.839,0.659,1.051,1.202,0.602,2.208c-2.73,6.112,0.12,9.702,6.835,8.922     c1.596-0.186,3.184-0.435,4.772-0.669c2.778-0.409,3.749,0.276,4.016,3.183c0.207,2.261,0.4,4.514,0.939,6.724     c12.311,0,24.621,0,36.932,0c0.576-0.899-0.317-1.444-0.602-2.059c-2.982-6.45-3.215-13.1-1.696-19.93     c0.562-2.527,1.981-4.5,3.656-6.373c4.479-5.008,7.56-10.65,8.434-17.457C85.812,27.828,76.8,14.68,62.678,11.567z      M76.086,32.842c3.252,2.259,2.058,6.859,2.058,6.859c-0.152,2.135-1.167,4.11-3.053,5.977c-0.317,0.314-0.368,0.597-0.373,0.891     c0.277,0.53,0.449,1.125,0.449,1.765c0,2.117-0.834,3.281-3.834,3.834c-2.146,0.396-2.958-0.667-2.958-0.667     c0,2.762-2.446,6-5.208,6c-1.81,0-3.38-0.971-4.258-2.41c-0.151-0.122-0.299-0.235-0.454-0.368     c-0.329,1.41-0.697,2.678-0.899,3.972c-0.124,0.796-0.372,1.157-1.227,1.133c-0.815-0.022-1.31-0.152-1.562-1.103     c-0.508-1.896-1.222-3.737-1.841-5.604c-0.469-1.415-1.253-2.429-2.289-3.132c-0.842,0.431-1.793,0.679-2.804,0.679     c-3.406,0-6.167-2.761-6.167-6.167c0-0.692,0.119-1.355,0.329-1.977c-1.181,1.217-2.832,1.977-4.662,1.977     c-3.59,0-6.5-2.91-6.5-6.5c0-0.236,0.015-0.47,0.039-0.699c-2.067-0.791-3.539-2.788-3.539-5.134     c0-2.568,1.765-4.721,4.146-5.325c0.128-0.112,0.252-0.228,0.371-0.348c-0.004-0.054-0.017-0.105-0.017-0.161     c0-1.278,0.901-2.345,2.102-2.604c0.015-0.007,0.028-0.015,0.042-0.021C34.568,21.016,36.964,19,39.833,19     c0.941,0,1.829,0.223,2.622,0.609c0.177,0.039,0.352,0.072,0.538,0.131c0.053,0.017,0.097,0.019,0.144,0.024     c0.63-1.616,2.191-2.766,4.03-2.766c0.812,0,1.563,0.237,2.213,0.626c0.537,0.196,1.007,0.221,1.5,0.103     C51.603,16.686,52.804,16,54.167,16c1.179,0,2.229,0.52,2.96,1.331c0.177,0.092,0.354,0.181,0.529,0.294     c0.297,0.191,0.561,0.306,0.86,0.328c0.564-0.39,1.246-0.62,1.983-0.62c1.559,0,2.864,1.026,3.317,2.435     c0.06,0.074,0.121,0.139,0.184,0.195c0.427-0.291,0.943-0.462,1.499-0.462c1.02,0,1.895,0.578,2.343,1.419     c0.117,0.096,0.239,0.188,0.363,0.276c0.357-0.116,0.731-0.195,1.127-0.195c2.024,0,3.666,1.642,3.666,3.666     c0,0.259-0.028,0.51-0.079,0.753c0.012,0.041,0.021,0.084,0.031,0.126c1.625,0.222,2.882,1.601,2.882,3.287     c0,0.498-0.116,0.966-0.312,1.391C75.521,30.224,77.5,31.25,76.086,32.842z"/>
		</g>
		<g>
			<path fill="tomato" d="M48.863,29.259c0.314-0.81,0.756-1.512,1.323-2.105c0.567-0.595,1.251-1.058,2.052-1.391s1.696-0.5,2.687-0.5     c1.278,0,2.345,0.176,3.199,0.526c0.855,0.352,1.544,0.788,2.066,1.31c0.521,0.522,0.895,1.085,1.12,1.688     c0.225,0.604,0.338,1.166,0.338,1.688c0,0.864-0.113,1.575-0.338,2.134c-0.226,0.558-0.504,1.035-0.837,1.431     c-0.333,0.396-0.702,0.733-1.107,1.013c-0.404,0.279-0.787,0.558-1.147,0.837s-0.68,0.599-0.958,0.958     c-0.279,0.36-0.455,0.811-0.526,1.351v1.025h-3.646v-1.215c0.054-0.773,0.202-1.422,0.445-1.943     c0.243-0.522,0.526-0.968,0.851-1.337s0.666-0.688,1.026-0.959c0.359-0.27,0.692-0.54,0.999-0.81     c0.306-0.27,0.554-0.567,0.742-0.891c0.189-0.324,0.274-0.729,0.257-1.216c0-0.827-0.203-1.439-0.607-1.836     c-0.405-0.396-0.968-0.594-1.688-0.594c-0.486,0-0.904,0.095-1.256,0.283c-0.351,0.189-0.639,0.441-0.864,0.757     c-0.225,0.314-0.392,0.684-0.499,1.106c-0.108,0.423-0.162,0.878-0.162,1.363h-3.969C48.382,30.96,48.549,30.069,48.863,29.259z      M56.95,40.842V45h-4.239v-4.158H56.95z"/>
		</g>
	</g>
</g>
</svg>